<svg id="Capa_1" enable-background="new 0 0 512.001 512.001" height="512" viewBox="0 0 512.001 512.001" width="512" xmlns="http://www.w3.org/2000/svg"><g><path d="m364.513 475.522h-217.024l-31.045-345.655h279.114z" fill="#ececec"/><path d="m364.513 475.522h-217.024l-31.045-345.655h279.114z" fill="#ececec"/><path d="m116.444 129.868 1.595 17.762h219.815c18.372 0 32.785 15.765 31.142 34.064l-26.39 293.828h21.907l31.045-345.655h-279.114z" fill="#e3e3e3"/><path d="m147.489 475.522h217.024v28.979h-217.024z" fill="#6ce79a"/><path d="m342.796 475.522h21.717v28.979h-21.717z" fill="#00d8a2"/><path d="m90.561 97.656h330.881v32.212h-330.881z" fill="#728d9a"/><path d="m400.249 97.656h21.193v32.212h-21.193z" fill="#4f6c77"/><path d="m415.718 54.814h-319.434l-15.031 42.842h349.496z" fill="#a55b4e"/><path d="m415.718 54.814h-25.325l15.03 42.842h25.326z" fill="#8e4b3f"/><path d="m372.599 54.814h-197.262l13.86-26.614 169.542-20.699z" fill="#8e4b3f"/><path d="m389.697 385.426 16.13-179.596c.436-4.86-3.391-9.047-8.271-9.047h-283.111c-4.879 0-8.707 4.187-8.271 9.047l16.13 179.596c.384 4.281 3.972 7.561 8.271 7.561h250.852c4.298 0 7.886-3.28 8.27-7.561z" fill="#6ce79a"/><path d="m397.557 196.783h-26.957c4.879 0 8.707 4.187 8.271 9.047l-16.13 179.596c-.385 4.281-3.972 7.561-8.271 7.561h26.957c4.298 0 7.886-3.28 8.271-7.561l16.13-179.596c.436-4.86-3.392-9.047-8.271-9.047z" fill="#00d8a2"/><g><ellipse cx="256.001" cy="277.783" fill="#a55b4e" rx="51.956" ry="42.841" transform="matrix(.707 -.707 .707 .707 -121.441 262.381)"/></g><g><path d="m437.826 95.173-15.03-42.842c-1.055-3.006-3.893-5.018-7.077-5.018h-37.503l-12.28-41.921c-1.032-3.523-4.468-5.787-8.106-5.336l-88.239 10.774c-4.111.502-7.037 4.241-6.535 8.354s4.246 7.037 8.354 6.535l81.921-10.001 9.256 31.597h-174.888l6.326-12.147 48.385-5.907c4.112-.502 7.038-4.241 6.536-8.354-.502-4.11-4.245-7.037-8.354-6.535l-52.305 6.386c-2.454.299-4.602 1.788-5.743 3.98l-11.757 22.577h-74.503c-3.185 0-6.022 2.012-7.077 5.017l-15.031 42.84c-.805 2.295-.448 4.837.958 6.821 1.406 1.983 3.687 3.162 6.119 3.162h1.808v24.712c0 4.143 3.358 7.5 7.5 7.5h19.027l4.664 51.926c-4.356.054-8.528 1.912-11.47 5.13-2.986 3.267-4.472 7.669-4.076 12.077l16.13 179.596c.737 8.204 7.504 14.391 15.741 14.391h2.644l6.769 75.368v28.646c0 4.143 3.358 7.5 7.5 7.5h52.397c4.142 0 7.5-3.357 7.5-7.5s-3.358-7.5-7.5-7.5h-44.897v-13.979h202.024v13.979h-128.128c-4.142 0-7.5 3.357-7.5 7.5s3.358 7.5 7.5 7.5h135.627c4.143 0 7.5-3.357 7.5-7.5v-28.646l6.769-75.368h2.644c8.238 0 15.005-6.188 15.74-14.391l10.322-114.925c.371-4.126-2.673-7.771-6.799-8.141-4.112-.369-7.771 2.673-8.141 6.799l-10.322 114.926c-.038.417-.382.731-.801.731h-250.85c-.419 0-.764-.315-.801-.732l-16.13-179.596c-.021-.234.049-.441.208-.614.159-.174.358-.262.593-.262h283.112c.235 0 .435.088.593.262.159.173.229.38.208.614l-3.204 35.671c-.371 4.125 2.673 7.771 6.799 8.141 4.126.372 7.771-2.672 8.141-6.799l3.204-35.671c.396-4.408-1.09-8.811-4.076-12.077-2.943-3.219-7.115-5.076-11.471-5.13l4.664-51.926h19.026c4.143 0 7.5-3.357 7.5-7.5v-24.712h1.808c2.432 0 4.712-1.179 6.118-3.162 1.406-1.984 1.763-4.526.959-6.82zm-80.169 372.849h-203.312l-6.066-67.534h215.443zm-256.056-405.708h308.8l9.769 27.842h-328.337zm281.09 126.97h-253.381l-4.663-51.916h262.707zm31.25-66.916h-315.88v-17.212h315.88z"/><path d="m291.598 313.38c23.182-23.183 26.073-58.011 6.445-77.64-19.629-19.627-54.458-16.733-77.639 6.445-11.042 11.042-17.884 25.047-19.268 39.437-1.436 14.932 3.118 28.498 12.823 38.203 8.748 8.747 20.511 13.021 32.92 13.021 15.435.001 31.869-6.616 44.719-19.466zm-75.531-30.322c1.051-10.932 6.358-21.68 14.943-30.265 9.961-9.961 22.555-15.152 34.083-15.152 8.533 0 16.482 2.846 22.343 8.707 13.78 13.779 10.889 39.092-6.445 56.425-17.333 17.335-42.646 20.225-56.425 6.445-6.48-6.478-9.498-15.769-8.499-26.16z"/><path d="m262.863 278.421c0-7.218 11.791-10.396 12.018-10.454 4.01-.978 6.479-5.014 5.517-9.031-.964-4.028-5.012-6.52-9.039-5.549-8.727 2.088-23.495 9.711-23.495 25.034 0 7.004-9.92 9.01-10.295 9.083-4.076.735-6.785 4.636-6.05 8.712.732 4.06 4.617 6.787 8.712 6.05 7.827-1.411 22.632-8.212 22.632-23.845z"/><path d="m188.721 358.441c0 4.143 3.358 7.5 7.5 7.5h119.56c4.143 0 7.5-3.357 7.5-7.5s-3.357-7.5-7.5-7.5h-119.56c-4.142 0-7.5 3.357-7.5 7.5z"/></g></g></svg>