<svg id="Capa_1" enable-background="new 0 0 512 512" height="512" viewBox="0 0 512 512" width="512" xmlns="http://www.w3.org/2000/svg"><g><g><path d="m404.476 7.5h-296.952c-16.569 0-30 17.431-30 34v70.281l178.976 70 177.976-70v-70.281c0-16.569-13.432-34-30-34z" fill="#53a3ec"/><path d="m176.3 81.781v-40.281c0-16.568 13.432-34 30-34h-98.775c-16.569 0-30 17.432-30 34v70.281h128.775c-16.569 0-30-13.432-30-30z" fill="#4293dd"/></g><g><path d="m424.8 504.5h-337.6c-16.569 0-30-13.431-30-30v-248.5h397.6v248.5c0 16.569-13.432 30-30 30z" fill="#ff8f71"/><path d="m206.3 469.8v-243.8h-149.1v248.5c0 16.569 13.431 30 30 30h153.8c-19.164 0-34.7-15.536-34.7-34.7z" fill="#ff6f4d"/></g><g><g><path d="m97.524 107.5c-18.416 0-35.268 10.356-43.587 26.787l-41.045 81.064c-3.545 7.001-5.392 14.738-5.392 22.586v21.363c0 27.448 22.251 49.7 49.7 49.7 26.084 0 49.7-20.445 49.7-50.919l49.7-32.081-9.7-118.5c-26.715 0-45.536 0-49.376 0z" fill="#d34459"/><path d="m305.7 226-49.7-20-49.7 20v33.3c0 27.448 22.251 49.7 49.7 49.7 26.084 0 49.7-20.445 49.7-50.919z" fill="#d34459"/><path d="m499.108 215.351-41.045-81.064c-8.319-16.431-25.171-26.787-43.587-26.787-10.8 0-251.173 0-267.576 0l-40 118.5h298.2l49.7 83 49.7-71.063c0-7.848-1.847-15.585-5.392-22.586z" fill="#ea5b70"/></g><g fill="#eff2f8"><path d="m146.9 107.5-40 118.5 49.7 40.3 49.7-40.3 20-118.5z"/><path d="m365.1 107.5h-79.4l20 118.5c0 2.155 49.7 40.3 49.7 40.3l49.7-40.3z"/></g><path d="m206.3 226h-99.4v33.3c0 27.448 22.251 49.7 49.7 49.7 26.084 0 49.7-20.445 49.7-50.919z" fill="#d7deed"/><path d="m405.1 226h-99.4v33.3c0 27.448 22.251 49.7 49.7 49.7 27.448 0 49.7-22.251 49.7-49.7z" fill="#d7deed"/><path d="m405.1 226v33.3c0 27.448 22.251 49.7 49.7 49.7s49.7-22.251 49.7-49.7v-21.363c0-4.037-.498-8.043-1.455-11.937z" fill="#d34459"/></g><g fill="#ff8e9e"><ellipse cx="172.443" cy="187.86" rx="29.355" ry="23.377"/><ellipse cx="339.557" cy="187.86" rx="29.355" ry="23.377"/></g><g><path d="m329.443 336.596h-146.886c-16.569 0-30 13.431-30 30v137.904h88.443 30 88.443v-137.904c0-16.569-13.432-30-30-30z" fill="#eff2f8"/><path d="m206.3 469.8v-133.204h-23.743c-16.569 0-30 13.431-30 30v137.904h88.443c-19.164 0-34.7-15.536-34.7-34.7z" fill="#d7deed"/><path d="m271 366.596h58.442v137.904h-58.442z" fill="#7ce3ff"/><g><path d="m182.558 366.596h58.442v137.904h-58.442z" fill="#7ce3ff"/><path d="m206.3 469.8v-103.204h-23.742v137.904h58.442c-19.164 0-34.7-15.536-34.7-34.7z" fill="#2ed0fc"/></g></g><g><path d="m419.443 336.596c-16.568 0-30 13.432-30 30v47.904c0 16.568 13.432 30 30 30h35.357v-107.904z" fill="#7ce3ff"/><path d="m92.557 336.596h-35.357v107.904h35.357c16.568 0 30-13.432 30-30v-47.904c0-16.569-13.431-30-30-30z" fill="#2ed0fc"/></g><g><path d="m505.799 211.962-41.045-81.063c-5.195-10.262-13.181-18.425-22.778-23.78v-65.619c0-19.59-16.037-41.5-37.5-41.5h-296.952c-21.463 0-37.5 21.91-37.5 41.5v65.619c-9.597 5.355-17.583 13.519-22.778 23.78l-8.843 17.466c-1.871 3.695-.392 8.208 3.304 10.079 3.694 1.87 8.208.392 10.079-3.304l8.843-17.466c7.153-14.129 21.455-22.674 36.895-22.674h38.928l-36.635 108.531c-.286.847-.417 1.73-.417 2.469v32.081c0 27.178-21.456 43.419-42.2 43.419-23.269 0-42.2-18.931-42.2-42.2v-21.363c0-6.638 1.585-13.276 4.583-19.198l18.649-36.833c1.872-3.696.393-8.208-3.303-10.08-3.694-1.871-8.208-.393-10.079 3.303l-18.65 36.834c-4.056 8.012-6.2 16.994-6.2 25.974v21.363c0 28.997 21.694 53.006 49.7 56.692v158.508c0 20.678 16.822 37.5 37.5 37.5h337.6c20.678 0 37.5-16.822 37.5-37.5v-75.172c0-4.142-3.357-7.5-7.5-7.5s-7.5 3.358-7.5 7.5v37.672h-27.857c-12.406 0-22.5-10.093-22.5-22.5v-47.904c0-12.407 10.094-22.5 22.5-22.5h27.857v25.155c0 4.142 3.357 7.5 7.5 7.5s7.5-3.358 7.5-7.5v-53.258c28.006-3.687 49.7-27.696 49.7-56.692v-21.363c0-8.636-1.987-17.653-6.201-25.976zm-408.275-111.962c-4.271 0-8.456.481-12.5 1.391v-59.891c0-12.003 10.037-26.5 22.5-26.5h296.951c12.464 0 22.5 14.497 22.5 26.5v59.891c-4.044-.91-8.229-1.391-12.5-1.391-10.8 0-300.545 0-316.951 0zm215.665 125.787c-.004-.138-.009-.276-.021-.415-.011-.136-.029-.27-.047-.404-.01-.073-.013-.145-.026-.217l-18.523-109.751h65.143l37.885 112.233v32.067c0 23.269-18.931 42.2-42.199 42.2-23.27 0-42.2-18.931-42.2-42.2v-1.219-32.081c-.001-.072-.01-.141-.012-.213zm-14.989.842v31.452c0 27.178-21.457 43.419-42.2 43.419-23.269 0-42.2-18.931-42.2-42.2v-1.219-31.452l18.841-111.629h46.719zm-183.8 31.452v-30.85l13.876-41.107 24.008-71.124h65.144l-18.523 109.752c-.012.073-.015.145-.026.217-.018.134-.036.268-.047.404-.012.139-.017.277-.021.415-.002.071-.011.141-.011.213v32.081c0 27.178-21.457 43.419-42.2 43.419-23.269 0-42.2-18.931-42.2-42.2zm-49.7 86.015h27.857c12.407 0 22.5 10.093 22.5 22.5v47.904c0 12.407-10.093 22.5-22.5 22.5h-27.857zm168.8 152.904h-43.442v-122.904h43.442zm88.442 0h-43.442v-122.904h43.442zm30 0h-15v-130.404c0-4.142-3.357-7.5-7.5-7.5h-58.442c-4.142 0-7.5 3.358-7.5 7.5v130.404h-15v-130.404c0-4.142-3.358-7.5-7.5-7.5h-58.442c-4.142 0-7.5 3.358-7.5 7.5v130.404h-15v-130.404c0-12.407 10.093-22.5 22.5-22.5h146.885c12.406 0 22.5 10.093 22.5 22.5v130.404zm95.358-167.904h-27.857c-20.678 0-37.5 16.822-37.5 37.5v47.904c0 20.678 16.822 37.5 37.5 37.5h27.857v22.5c0 12.407-10.094 22.5-22.5 22.5h-57.857v-130.404c0-20.678-16.822-37.5-37.5-37.5h-146.885c-20.678 0-37.5 16.822-37.5 37.5v130.404h-57.858c-12.407 0-22.5-10.093-22.5-22.5v-22.5h27.857c20.678 0 37.5-16.822 37.5-37.5v-47.904c0-20.678-16.822-37.5-37.5-37.5h-27.857v-13.09c18.236-2.341 33.532-13.122 42.152-28.528 9.845 17.312 28.449 29.022 49.748 29.022 21.506 0 39.874-11.545 49.652-29.022 9.845 17.312 28.449 29.022 49.748 29.022 21.506 0 39.874-11.546 49.652-29.022 9.845 17.312 28.449 29.022 49.748 29.022 21.265 0 39.843-11.673 49.699-28.939 8.678 15.201 24.118 26.051 42.2 28.432v13.103zm49.7-69.796c0 23.269-18.931 42.2-42.2 42.2s-42.2-18.931-42.2-42.2v-33.3c0-.818-.154-1.682-.394-2.398l-36.659-108.602h38.928c15.438 0 29.741 8.543 36.896 22.674l41.046 81.065c3.071 6.064 4.583 12.765 4.583 19.198z"/><path d="m145.354 29.715-17.181 17.275-17.18-17.276c-4.7-4.725-12.815-1.397-12.815 5.288v44.995c0 4.143 3.357 7.5 7.498 7.5s7.5-3.356 7.5-7.5v-26.819l9.681 9.735c2.931 2.947 7.704 2.946 10.634 0l9.681-9.735v26.818c0 4.143 3.358 7.5 7.5 7.5 4.141 0 7.499-3.356 7.499-7.5v-44.994c-.001-6.665-8.102-10.029-12.817-5.287z"/><path d="m197.133 32.369c-1.098-2.926-3.896-4.865-7.021-4.865s-5.924 1.938-7.021 4.865l-16.872 44.995c-1.456 3.879.511 8.202 4.388 9.655 3.879 1.451 8.2-.511 9.655-4.388l.987-2.634h17.728l.988 2.634c1.463 3.9 5.804 5.834 9.654 4.388 3.876-1.453 5.841-5.775 4.387-9.655zm-10.262 32.63 3.239-8.639 3.239 8.639z"/><path d="m266.482 50.002c0-12.404-10.036-22.497-22.371-22.497h-14.625c-4.142 0-7.499 3.356-7.499 7.498v44.995c0 4.143 3.357 7.5 7.499 7.5 4.141 0 7.499-3.356 7.499-7.5v-7.498h3.999l12.673 12.779c2.911 2.937 7.656 2.965 10.606.045 2.939-2.916 2.959-7.665.044-10.605l-6.719-6.775c5.399-4.113 8.894-10.624 8.894-17.942zm-22.371 7.497h-7.126v-14.998h7.126c4.064 0 7.372 3.364 7.372 7.5 0 4.135-3.307 7.498-7.372 7.498z"/><path d="m312.719 29.651c-2.956-2.9-7.706-2.854-10.605.101l-13.145 13.396v-8.146c0-4.142-3.359-7.498-7.5-7.498s-7.498 3.356-7.498 7.498v44.995c0 4.143 3.357 7.5 7.498 7.5s7.5-3.356 7.5-7.5v-15.432l.256-.263 11.83 19.501c2.149 3.541 6.761 4.668 10.301 2.521 3.542-2.148 4.67-6.76 2.521-10.301l-13.813-22.769 12.757-13c2.899-2.956 2.854-7.704-.102-10.603z"/><path d="m353.076 42.501c4.143 0 7.499-3.356 7.499-7.5 0-4.142-3.356-7.498-7.499-7.498h-22.997c-4.141 0-7.498 3.356-7.498 7.498v44.995c0 4.143 3.357 7.5 7.498 7.5h22.997c4.143 0 7.499-3.356 7.499-7.5 0-4.142-3.356-7.499-7.499-7.499h-15.497v-7.499h9.498c4.142 0 7.498-3.356 7.498-7.5 0-4.142-3.356-7.499-7.498-7.499h-9.498v-7.5h15.497z"/><path d="m406.323 27.504h-33.995c-4.143 0-7.5 3.356-7.5 7.498 0 4.143 3.357 7.5 7.5 7.5h9.498v37.495c0 4.143 3.357 7.5 7.499 7.5s7.499-3.356 7.499-7.5v-37.496h9.499c4.142 0 7.499-3.356 7.499-7.5 0-4.141-3.357-7.497-7.499-7.497z"/><path d="m193.551 176.856c4.142 0 7.5-3.358 7.5-7.5v-12c0-4.142-3.358-7.5-7.5-7.5s-7.5 3.358-7.5 7.5v12c0 4.143 3.358 7.5 7.5 7.5z"/><path d="m325.949 169.356v-12c0-4.142-3.358-7.5-7.5-7.5s-7.5 3.358-7.5 7.5v12c0 4.142 3.358 7.5 7.5 7.5s7.5-3.357 7.5-7.5z"/><path d="m277.392 163.346c-3.122-2.722-7.86-2.397-10.582.726-2.73 3.132-6.67 4.928-10.811 4.928s-8.081-1.796-10.811-4.928c-2.722-3.123-7.459-3.448-10.582-.726s-3.448 7.459-.726 10.582c5.581 6.401 13.643 10.072 22.12 10.072s16.539-3.671 22.118-10.073c2.722-3.122 2.397-7.86-.726-10.581z"/></g></g></svg>